<svg width="23" height="26" viewBox="0 0 23 26" fill="none" xmlns="http://www.w3.org/2000/svg">
<path id="Vector" d="M21.9826 22.5354C21.6986 20.4542 20.8251 18.5027 19.4694 16.9199C18.1137 15.3373 16.3344 14.1924 14.35 13.6255C16.127 12.7349 17.4112 11.0702 17.8415 9.0996C18.2717 7.12915 17.8013 5.06627 16.5627 3.49121C15.324 1.91644 13.4512 1 11.471 1C9.49097 1 7.61814 1.91644 6.37939 3.49121C5.14077 5.06615 4.67025 7.12902 5.10055 9.0996C5.53068 11.07 6.81502 12.7348 8.59186 13.6255C6.89228 14.1073 5.33814 15.0158 4.07167 16.268C2.80511 17.5201 1.86665 19.0757 1.3418 20.793C1.31626 20.8775 1.13782 21.6934 1.02306 22.5124V22.5126C0.939173 23.0584 1.08642 23.6148 1.42796 24.0435C1.75721 24.4603 2.24584 24.7136 2.77019 24.7391H20.2162C20.737 24.717 21.224 24.47 21.5553 24.0598C21.9001 23.6347 22.055 23.0819 21.9825 22.5353L21.9826 22.5354ZM6.08912 7.66438C6.08912 6.21023 6.65563 4.8156 7.66407 3.78728C8.67251 2.75879 10.0403 2.18104 11.4667 2.1807C12.893 2.18037 14.2608 2.75765 15.2698 3.78563C16.2785 4.81361 16.8456 6.20795 16.8462 7.66227C16.8467 9.11643 16.2808 10.5112 15.2727 11.5401C14.2648 12.5687 12.8972 13.1471 11.4709 13.1479C10.0443 13.1471 8.67656 12.5692 7.66746 11.5412C6.65853 10.513 6.09086 9.11871 6.08908 7.66438H6.08912ZM20.6912 23.2248C20.5719 23.3647 20.3978 23.4433 20.2162 23.4393H2.77015C2.5854 23.4428 2.40873 23.3617 2.28863 23.2183C2.16724 23.0728 2.11487 22.8802 2.14526 22.6919C2.27279 21.8923 2.43216 21.1739 2.43862 21.1382V21.138C3.08111 19.0459 4.40299 17.2393 6.18677 16.0152C7.97056 14.7911 10.11 14.2231 12.2529 14.4038C14.3957 14.5848 16.4143 15.504 17.9763 17.0104C19.5386 18.5166 20.551 20.5203 20.8475 22.6918C20.8742 22.8841 20.8171 23.0789 20.6912 23.2247L20.6912 23.2248Z" fill="#2F2F2F" stroke="#2F2F2F" stroke-width="0.6"/>
</svg>
